%TF.GenerationSoftware,KiCad,Pcbnew,(6.0.9)*%
%TF.CreationDate,2023-07-07T16:24:00-04:00*%
%TF.ProjectId,MOODLighting,4d4f4f44-4c69-4676-9874-696e672e6b69,rev?*%
%TF.SameCoordinates,Original*%
%TF.FileFunction,Legend,Bot*%
%TF.FilePolarity,Positive*%
%FSLAX46Y46*%
G04 Gerber Fmt 4.6, Leading zero omitted, Abs format (unit mm)*
G04 Created by KiCad (PCBNEW (6.0.9)) date 2023-07-07 16:24:00*
%MOMM*%
%LPD*%
G01*
G04 APERTURE LIST*
%ADD10C,0.150000*%
%ADD11C,0.120000*%
G04 APERTURE END LIST*
D10*
%TO.C,A1*%
X105686666Y-77535714D02*
X105686666Y-78011904D01*
X105972380Y-77440476D02*
X104972380Y-77773809D01*
X105972380Y-78107142D01*
X105972380Y-78964285D02*
X105972380Y-78392857D01*
X105972380Y-78678571D02*
X104972380Y-78678571D01*
X105115238Y-78583333D01*
X105210476Y-78488095D01*
X105258095Y-78392857D01*
D11*
X144640000Y-117750000D02*
X111870000Y-117750000D01*
X106660000Y-115210000D02*
X106660000Y-48910000D01*
X109840000Y-47010000D02*
X118980000Y-47010000D01*
X118980000Y-47010000D02*
X118980000Y-48910000D01*
X109840000Y-48910000D02*
X109840000Y-47010000D01*
X158610000Y-115210000D02*
X147180000Y-115210000D01*
X160260000Y-48910000D02*
X160260000Y-113560000D01*
X111870000Y-117750000D02*
X109330000Y-115210000D01*
X160260000Y-113560000D02*
X158610000Y-115210000D01*
X139050000Y-42560000D02*
X150730000Y-42560000D01*
X139050000Y-48910000D02*
X139050000Y-42560000D01*
X150730000Y-48910000D02*
X160260000Y-48910000D01*
X106660000Y-48910000D02*
X109840000Y-48910000D01*
X150730000Y-42560000D02*
X150730000Y-48910000D01*
X109330000Y-115210000D02*
X106660000Y-115210000D01*
X118980000Y-48910000D02*
X139050000Y-48910000D01*
X147180000Y-115210000D02*
X144640000Y-117750000D01*
%TD*%
M02*
