%TF.GenerationSoftware,KiCad,Pcbnew,(6.0.9)*%
%TF.CreationDate,2023-07-07T16:24:00-04:00*%
%TF.ProjectId,MOODLighting,4d4f4f44-4c69-4676-9874-696e672e6b69,rev?*%
%TF.SameCoordinates,Original*%
%TF.FileFunction,Soldermask,Bot*%
%TF.FilePolarity,Negative*%
%FSLAX46Y46*%
G04 Gerber Fmt 4.6, Leading zero omitted, Abs format (unit mm)*
G04 Created by KiCad (PCBNEW (6.0.9)) date 2023-07-07 16:24:00*
%MOMM*%
%LPD*%
G01*
G04 APERTURE LIST*
%ADD10R,1.600000X1.600000*%
%ADD11O,1.600000X1.600000*%
%ADD12R,1.800000X1.800000*%
%ADD13C,1.800000*%
%ADD14C,1.600000*%
%ADD15R,1.700000X1.700000*%
%ADD16O,1.700000X1.700000*%
%ADD17R,2.000000X2.000000*%
%ADD18C,2.000000*%
G04 APERTURE END LIST*
D10*
%TO.C,A1*%
X109330000Y-76980000D03*
D11*
X109330000Y-79520000D03*
X109330000Y-82060000D03*
X109330000Y-84600000D03*
X109330000Y-87140000D03*
X109330000Y-89680000D03*
X109330000Y-92220000D03*
X109330000Y-94760000D03*
X109330000Y-99840000D03*
X109330000Y-102380000D03*
X109330000Y-104920000D03*
X109330000Y-107460000D03*
X109330000Y-110000000D03*
X109330000Y-112540000D03*
X157590000Y-112540000D03*
X157590000Y-110000000D03*
X157590000Y-107460000D03*
X157590000Y-104920000D03*
X157590000Y-102380000D03*
X157590000Y-99840000D03*
X157590000Y-97300000D03*
X157590000Y-94760000D03*
X157590000Y-90700000D03*
X157590000Y-88160000D03*
X157590000Y-85620000D03*
X157590000Y-83080000D03*
X157590000Y-80540000D03*
X157590000Y-78000000D03*
X157590000Y-75460000D03*
X157590000Y-72920000D03*
X157590000Y-70380000D03*
X157590000Y-67840000D03*
%TD*%
D12*
%TO.C,D1*%
X116038000Y-70542000D03*
D13*
X116038000Y-68383000D03*
X116038000Y-66224000D03*
X116038000Y-64065000D03*
%TD*%
D14*
%TO.C,R2*%
X152630000Y-75390000D03*
D11*
X152630000Y-83010000D03*
%TD*%
D15*
%TO.C,J5*%
X146095000Y-108350000D03*
D16*
X143555000Y-108350000D03*
X141015000Y-108350000D03*
%TD*%
D14*
%TO.C,R3*%
X146910000Y-75180000D03*
D11*
X146910000Y-82800000D03*
%TD*%
D17*
%TO.C,BZ1*%
X133640000Y-79750000D03*
D18*
X126040000Y-79750000D03*
%TD*%
D10*
%TO.C,U1*%
X131240000Y-109745000D03*
D11*
X131240000Y-107205000D03*
X131240000Y-104665000D03*
X131240000Y-102125000D03*
X131240000Y-99585000D03*
X131240000Y-97045000D03*
X131240000Y-94505000D03*
X131240000Y-91965000D03*
X123620000Y-91965000D03*
X123620000Y-94505000D03*
X123620000Y-97045000D03*
X123620000Y-99585000D03*
X123620000Y-102125000D03*
X123620000Y-104665000D03*
X123620000Y-107205000D03*
X123620000Y-109745000D03*
%TD*%
D15*
%TO.C,J6*%
X151885000Y-92830000D03*
D16*
X149345000Y-92830000D03*
%TD*%
D15*
%TO.C,J3*%
X116450000Y-106010000D03*
D16*
X118990000Y-106010000D03*
%TD*%
D14*
%TO.C,R4*%
X140890000Y-75080000D03*
D11*
X140890000Y-82700000D03*
%TD*%
D12*
%TO.C,D2*%
X150820000Y-70417000D03*
D13*
X150820000Y-68258000D03*
X150820000Y-66099000D03*
X150820000Y-63940000D03*
%TD*%
M02*
