%TF.GenerationSoftware,KiCad,Pcbnew,(6.0.9)*%
%TF.CreationDate,2023-07-07T16:24:00-04:00*%
%TF.ProjectId,MOODLighting,4d4f4f44-4c69-4676-9874-696e672e6b69,rev?*%
%TF.SameCoordinates,Original*%
%TF.FileFunction,Legend,Top*%
%TF.FilePolarity,Positive*%
%FSLAX46Y46*%
G04 Gerber Fmt 4.6, Leading zero omitted, Abs format (unit mm)*
G04 Created by KiCad (PCBNEW (6.0.9)) date 2023-07-07 16:24:00*
%MOMM*%
%LPD*%
G01*
G04 APERTURE LIST*
%ADD10C,0.150000*%
%ADD11C,0.120000*%
G04 APERTURE END LIST*
D10*
%TO.C,D1*%
X112530380Y-68041595D02*
X111530380Y-68041595D01*
X111530380Y-67803500D01*
X111578000Y-67660642D01*
X111673238Y-67565404D01*
X111768476Y-67517785D01*
X111958952Y-67470166D01*
X112101809Y-67470166D01*
X112292285Y-67517785D01*
X112387523Y-67565404D01*
X112482761Y-67660642D01*
X112530380Y-67803500D01*
X112530380Y-68041595D01*
X112530380Y-66517785D02*
X112530380Y-67089214D01*
X112530380Y-66803500D02*
X111530380Y-66803500D01*
X111673238Y-66898738D01*
X111768476Y-66993976D01*
X111816095Y-67089214D01*
%TO.C,R2*%
X155452380Y-79366666D02*
X154976190Y-79700000D01*
X155452380Y-79938095D02*
X154452380Y-79938095D01*
X154452380Y-79557142D01*
X154500000Y-79461904D01*
X154547619Y-79414285D01*
X154642857Y-79366666D01*
X154785714Y-79366666D01*
X154880952Y-79414285D01*
X154928571Y-79461904D01*
X154976190Y-79557142D01*
X154976190Y-79938095D01*
X154547619Y-78985714D02*
X154500000Y-78938095D01*
X154452380Y-78842857D01*
X154452380Y-78604761D01*
X154500000Y-78509523D01*
X154547619Y-78461904D01*
X154642857Y-78414285D01*
X154738095Y-78414285D01*
X154880952Y-78461904D01*
X155452380Y-79033333D01*
X155452380Y-78414285D01*
%TO.C,J5*%
X147877380Y-108683333D02*
X148591666Y-108683333D01*
X148734523Y-108730952D01*
X148829761Y-108826190D01*
X148877380Y-108969047D01*
X148877380Y-109064285D01*
X147877380Y-107730952D02*
X147877380Y-108207142D01*
X148353571Y-108254761D01*
X148305952Y-108207142D01*
X148258333Y-108111904D01*
X148258333Y-107873809D01*
X148305952Y-107778571D01*
X148353571Y-107730952D01*
X148448809Y-107683333D01*
X148686904Y-107683333D01*
X148782142Y-107730952D01*
X148829761Y-107778571D01*
X148877380Y-107873809D01*
X148877380Y-108111904D01*
X148829761Y-108207142D01*
X148782142Y-108254761D01*
%TO.C,R3*%
X149732380Y-79156666D02*
X149256190Y-79490000D01*
X149732380Y-79728095D02*
X148732380Y-79728095D01*
X148732380Y-79347142D01*
X148780000Y-79251904D01*
X148827619Y-79204285D01*
X148922857Y-79156666D01*
X149065714Y-79156666D01*
X149160952Y-79204285D01*
X149208571Y-79251904D01*
X149256190Y-79347142D01*
X149256190Y-79728095D01*
X148732380Y-78823333D02*
X148732380Y-78204285D01*
X149113333Y-78537619D01*
X149113333Y-78394761D01*
X149160952Y-78299523D01*
X149208571Y-78251904D01*
X149303809Y-78204285D01*
X149541904Y-78204285D01*
X149637142Y-78251904D01*
X149684761Y-78299523D01*
X149732380Y-78394761D01*
X149732380Y-78680476D01*
X149684761Y-78775714D01*
X149637142Y-78823333D01*
%TO.C,BZ1*%
X128959047Y-86878571D02*
X129101904Y-86926190D01*
X129149523Y-86973809D01*
X129197142Y-87069047D01*
X129197142Y-87211904D01*
X129149523Y-87307142D01*
X129101904Y-87354761D01*
X129006666Y-87402380D01*
X128625714Y-87402380D01*
X128625714Y-86402380D01*
X128959047Y-86402380D01*
X129054285Y-86450000D01*
X129101904Y-86497619D01*
X129149523Y-86592857D01*
X129149523Y-86688095D01*
X129101904Y-86783333D01*
X129054285Y-86830952D01*
X128959047Y-86878571D01*
X128625714Y-86878571D01*
X129530476Y-86402380D02*
X130197142Y-86402380D01*
X129530476Y-87402380D01*
X130197142Y-87402380D01*
X131101904Y-87402380D02*
X130530476Y-87402380D01*
X130816190Y-87402380D02*
X130816190Y-86402380D01*
X130720952Y-86545238D01*
X130625714Y-86640476D01*
X130530476Y-86688095D01*
X133269047Y-82361428D02*
X134030952Y-82361428D01*
X133650000Y-82742380D02*
X133650000Y-81980476D01*
%TO.C,U1*%
X126668095Y-111527380D02*
X126668095Y-112336904D01*
X126715714Y-112432142D01*
X126763333Y-112479761D01*
X126858571Y-112527380D01*
X127049047Y-112527380D01*
X127144285Y-112479761D01*
X127191904Y-112432142D01*
X127239523Y-112336904D01*
X127239523Y-111527380D01*
X128239523Y-112527380D02*
X127668095Y-112527380D01*
X127953809Y-112527380D02*
X127953809Y-111527380D01*
X127858571Y-111670238D01*
X127763333Y-111765476D01*
X127668095Y-111813095D01*
%TO.C,J6*%
X153667380Y-93163333D02*
X154381666Y-93163333D01*
X154524523Y-93210952D01*
X154619761Y-93306190D01*
X154667380Y-93449047D01*
X154667380Y-93544285D01*
X153667380Y-92258571D02*
X153667380Y-92449047D01*
X153715000Y-92544285D01*
X153762619Y-92591904D01*
X153905476Y-92687142D01*
X154095952Y-92734761D01*
X154476904Y-92734761D01*
X154572142Y-92687142D01*
X154619761Y-92639523D01*
X154667380Y-92544285D01*
X154667380Y-92353809D01*
X154619761Y-92258571D01*
X154572142Y-92210952D01*
X154476904Y-92163333D01*
X154238809Y-92163333D01*
X154143571Y-92210952D01*
X154095952Y-92258571D01*
X154048333Y-92353809D01*
X154048333Y-92544285D01*
X154095952Y-92639523D01*
X154143571Y-92687142D01*
X154238809Y-92734761D01*
%TO.C,J3*%
X113572380Y-106343333D02*
X114286666Y-106343333D01*
X114429523Y-106390952D01*
X114524761Y-106486190D01*
X114572380Y-106629047D01*
X114572380Y-106724285D01*
X113572380Y-105962380D02*
X113572380Y-105343333D01*
X113953333Y-105676666D01*
X113953333Y-105533809D01*
X114000952Y-105438571D01*
X114048571Y-105390952D01*
X114143809Y-105343333D01*
X114381904Y-105343333D01*
X114477142Y-105390952D01*
X114524761Y-105438571D01*
X114572380Y-105533809D01*
X114572380Y-105819523D01*
X114524761Y-105914761D01*
X114477142Y-105962380D01*
%TO.C,R4*%
X143712380Y-79056666D02*
X143236190Y-79390000D01*
X143712380Y-79628095D02*
X142712380Y-79628095D01*
X142712380Y-79247142D01*
X142760000Y-79151904D01*
X142807619Y-79104285D01*
X142902857Y-79056666D01*
X143045714Y-79056666D01*
X143140952Y-79104285D01*
X143188571Y-79151904D01*
X143236190Y-79247142D01*
X143236190Y-79628095D01*
X143045714Y-78199523D02*
X143712380Y-78199523D01*
X142664761Y-78437619D02*
X143379047Y-78675714D01*
X143379047Y-78056666D01*
%TO.C,D2*%
X147312380Y-67916595D02*
X146312380Y-67916595D01*
X146312380Y-67678500D01*
X146360000Y-67535642D01*
X146455238Y-67440404D01*
X146550476Y-67392785D01*
X146740952Y-67345166D01*
X146883809Y-67345166D01*
X147074285Y-67392785D01*
X147169523Y-67440404D01*
X147264761Y-67535642D01*
X147312380Y-67678500D01*
X147312380Y-67916595D01*
X146407619Y-66964214D02*
X146360000Y-66916595D01*
X146312380Y-66821357D01*
X146312380Y-66583261D01*
X146360000Y-66488023D01*
X146407619Y-66440404D01*
X146502857Y-66392785D01*
X146598095Y-66392785D01*
X146740952Y-66440404D01*
X147312380Y-67011833D01*
X147312380Y-66392785D01*
D11*
%TO.C,D1*%
X117118000Y-69863500D02*
X117583000Y-69863500D01*
X114493000Y-69863500D02*
X114958000Y-69863500D01*
X117582830Y-69863500D02*
G75*
G03*
X117118827Y-64515685I-1544830J2560000D01*
G01*
X117118000Y-69558184D02*
G75*
G03*
X117118429Y-65049021I-1080000J2254684D01*
G01*
X114957571Y-65049021D02*
G75*
G03*
X114958000Y-69558184I1080429J-2254479D01*
G01*
X114957173Y-64515685D02*
G75*
G03*
X114493170Y-69863500I1080827J-2787815D01*
G01*
%TO.C,R2*%
X151260000Y-75930000D02*
X151260000Y-82470000D01*
X154000000Y-82470000D02*
X153670000Y-82470000D01*
X151590000Y-75930000D02*
X151260000Y-75930000D01*
X151260000Y-82470000D02*
X151590000Y-82470000D01*
X154000000Y-75930000D02*
X154000000Y-82470000D01*
X153670000Y-75930000D02*
X154000000Y-75930000D01*
%TO.C,J5*%
X144825000Y-109680000D02*
X139685000Y-109680000D01*
X139685000Y-107020000D02*
X139685000Y-109680000D01*
X144825000Y-107020000D02*
X139685000Y-107020000D01*
X144825000Y-107020000D02*
X144825000Y-109680000D01*
X147425000Y-107020000D02*
X147425000Y-108350000D01*
X146095000Y-107020000D02*
X147425000Y-107020000D01*
%TO.C,R3*%
X148280000Y-82260000D02*
X147950000Y-82260000D01*
X145540000Y-75720000D02*
X145540000Y-82260000D01*
X145870000Y-75720000D02*
X145540000Y-75720000D01*
X147950000Y-75720000D02*
X148280000Y-75720000D01*
X145540000Y-82260000D02*
X145870000Y-82260000D01*
X148280000Y-75720000D02*
X148280000Y-82260000D01*
%TO.C,BZ1*%
X135940000Y-79750000D02*
G75*
G03*
X135940000Y-79750000I-6100000J0D01*
G01*
%TO.C,U1*%
X124780000Y-90635000D02*
X124780000Y-111075000D01*
X124780000Y-111075000D02*
X126430000Y-111075000D01*
X130080000Y-90635000D02*
X124780000Y-90635000D01*
X128430000Y-111075000D02*
X130080000Y-111075000D01*
X130080000Y-111075000D02*
X130080000Y-90635000D01*
X128430000Y-111075000D02*
G75*
G03*
X126430000Y-111075000I-1000000J0D01*
G01*
%TO.C,J6*%
X150615000Y-94160000D02*
X148015000Y-94160000D01*
X150615000Y-91500000D02*
X150615000Y-94160000D01*
X153215000Y-91500000D02*
X153215000Y-92830000D01*
X150615000Y-91500000D02*
X148015000Y-91500000D01*
X151885000Y-91500000D02*
X153215000Y-91500000D01*
X148015000Y-91500000D02*
X148015000Y-94160000D01*
%TO.C,J3*%
X115120000Y-107340000D02*
X115120000Y-106010000D01*
X117720000Y-107340000D02*
X117720000Y-104680000D01*
X120320000Y-107340000D02*
X120320000Y-104680000D01*
X116450000Y-107340000D02*
X115120000Y-107340000D01*
X117720000Y-104680000D02*
X120320000Y-104680000D01*
X117720000Y-107340000D02*
X120320000Y-107340000D01*
%TO.C,R4*%
X139850000Y-75620000D02*
X139520000Y-75620000D01*
X142260000Y-75620000D02*
X142260000Y-82160000D01*
X141930000Y-75620000D02*
X142260000Y-75620000D01*
X139520000Y-75620000D02*
X139520000Y-82160000D01*
X139520000Y-82160000D02*
X139850000Y-82160000D01*
X142260000Y-82160000D02*
X141930000Y-82160000D01*
%TO.C,D2*%
X149275000Y-69738500D02*
X149740000Y-69738500D01*
X151900000Y-69738500D02*
X152365000Y-69738500D01*
X152364830Y-69738500D02*
G75*
G03*
X151900827Y-64390685I-1544830J2560000D01*
G01*
X149739173Y-64390685D02*
G75*
G03*
X149275170Y-69738500I1080827J-2787815D01*
G01*
X151900000Y-69433184D02*
G75*
G03*
X151900429Y-64924021I-1080000J2254684D01*
G01*
X149739571Y-64924021D02*
G75*
G03*
X149740000Y-69433184I1080429J-2254479D01*
G01*
%TD*%
M02*
