%TF.GenerationSoftware,KiCad,Pcbnew,(6.0.9)*%
%TF.CreationDate,2023-07-07T16:24:00-04:00*%
%TF.ProjectId,MOODLighting,4d4f4f44-4c69-4676-9874-696e672e6b69,rev?*%
%TF.SameCoordinates,Original*%
%TF.FileFunction,Copper,L1,Top*%
%TF.FilePolarity,Positive*%
%FSLAX46Y46*%
G04 Gerber Fmt 4.6, Leading zero omitted, Abs format (unit mm)*
G04 Created by KiCad (PCBNEW (6.0.9)) date 2023-07-07 16:24:00*
%MOMM*%
%LPD*%
G01*
G04 APERTURE LIST*
%TA.AperFunction,ComponentPad*%
%ADD10R,1.600000X1.600000*%
%TD*%
%TA.AperFunction,ComponentPad*%
%ADD11O,1.600000X1.600000*%
%TD*%
%TA.AperFunction,ComponentPad*%
%ADD12R,1.800000X1.800000*%
%TD*%
%TA.AperFunction,ComponentPad*%
%ADD13C,1.800000*%
%TD*%
%TA.AperFunction,ComponentPad*%
%ADD14C,1.600000*%
%TD*%
%TA.AperFunction,ComponentPad*%
%ADD15R,1.700000X1.700000*%
%TD*%
%TA.AperFunction,ComponentPad*%
%ADD16O,1.700000X1.700000*%
%TD*%
%TA.AperFunction,ComponentPad*%
%ADD17R,2.000000X2.000000*%
%TD*%
%TA.AperFunction,ComponentPad*%
%ADD18C,2.000000*%
%TD*%
%TA.AperFunction,Conductor*%
%ADD19C,0.250000*%
%TD*%
G04 APERTURE END LIST*
D10*
%TO.P,A1,1,NC*%
%TO.N,unconnected-(A1-Pad1)*%
X109330000Y-76980000D03*
D11*
%TO.P,A1,2,IOREF*%
%TO.N,unconnected-(A1-Pad2)*%
X109330000Y-79520000D03*
%TO.P,A1,3,~{RESET}*%
%TO.N,unconnected-(A1-Pad3)*%
X109330000Y-82060000D03*
%TO.P,A1,4,3V3*%
%TO.N,unconnected-(A1-Pad4)*%
X109330000Y-84600000D03*
%TO.P,A1,5,+5V*%
%TO.N,/5v*%
X109330000Y-87140000D03*
%TO.P,A1,6,GND*%
%TO.N,GND*%
X109330000Y-89680000D03*
%TO.P,A1,7,GND*%
X109330000Y-92220000D03*
%TO.P,A1,8,VIN*%
%TO.N,unconnected-(A1-Pad8)*%
X109330000Y-94760000D03*
%TO.P,A1,9,A0*%
%TO.N,unconnected-(A1-Pad9)*%
X109330000Y-99840000D03*
%TO.P,A1,10,A1*%
%TO.N,unconnected-(A1-Pad10)*%
X109330000Y-102380000D03*
%TO.P,A1,11,A2*%
%TO.N,unconnected-(A1-Pad11)*%
X109330000Y-104920000D03*
%TO.P,A1,12,A3*%
%TO.N,unconnected-(A1-Pad12)*%
X109330000Y-107460000D03*
%TO.P,A1,13,SDA/A4*%
%TO.N,unconnected-(A1-Pad13)*%
X109330000Y-110000000D03*
%TO.P,A1,14,SCL/A5*%
%TO.N,unconnected-(A1-Pad14)*%
X109330000Y-112540000D03*
%TO.P,A1,15,D0/RX*%
%TO.N,unconnected-(A1-Pad15)*%
X157590000Y-112540000D03*
%TO.P,A1,16,D1/TX*%
%TO.N,unconnected-(A1-Pad16)*%
X157590000Y-110000000D03*
%TO.P,A1,17,D2*%
%TO.N,/D2*%
X157590000Y-107460000D03*
%TO.P,A1,18,D3*%
%TO.N,unconnected-(A1-Pad18)*%
X157590000Y-104920000D03*
%TO.P,A1,19,D4*%
%TO.N,/D4*%
X157590000Y-102380000D03*
%TO.P,A1,20,D5*%
%TO.N,/PWM5*%
X157590000Y-99840000D03*
%TO.P,A1,21,D6*%
%TO.N,/PWM6*%
X157590000Y-97300000D03*
%TO.P,A1,22,D7*%
%TO.N,/D7*%
X157590000Y-94760000D03*
%TO.P,A1,23,D8*%
%TO.N,unconnected-(A1-Pad23)*%
X157590000Y-90700000D03*
%TO.P,A1,24,D9*%
%TO.N,/PWM9*%
X157590000Y-88160000D03*
%TO.P,A1,25,D10*%
%TO.N,/pwm10*%
X157590000Y-85620000D03*
%TO.P,A1,26,D11*%
%TO.N,/pwm11*%
X157590000Y-83080000D03*
%TO.P,A1,27,D12*%
%TO.N,unconnected-(A1-Pad27)*%
X157590000Y-80540000D03*
%TO.P,A1,28,D13*%
%TO.N,unconnected-(A1-Pad28)*%
X157590000Y-78000000D03*
%TO.P,A1,29,GND*%
%TO.N,GND*%
X157590000Y-75460000D03*
%TO.P,A1,30,AREF*%
%TO.N,unconnected-(A1-Pad30)*%
X157590000Y-72920000D03*
%TO.P,A1,31,SDA/A4*%
%TO.N,unconnected-(A1-Pad31)*%
X157590000Y-70380000D03*
%TO.P,A1,32,SCL/A5*%
%TO.N,unconnected-(A1-Pad32)*%
X157590000Y-67840000D03*
%TD*%
D12*
%TO.P,D1,1,BA*%
%TO.N,Net-(D1-Pad1)*%
X116038000Y-70542000D03*
D13*
%TO.P,D1,2,K*%
%TO.N,GND*%
X116038000Y-68383000D03*
%TO.P,D1,3,GA*%
%TO.N,Net-(D1-Pad3)*%
X116038000Y-66224000D03*
%TO.P,D1,4,RA*%
%TO.N,Net-(D1-Pad4)*%
X116038000Y-64065000D03*
%TD*%
D14*
%TO.P,R2,1*%
%TO.N,Net-(D1-Pad4)*%
X152630000Y-75390000D03*
D11*
%TO.P,R2,2*%
%TO.N,/pwm10*%
X152630000Y-83010000D03*
%TD*%
D15*
%TO.P,J5,1,Pin_1*%
%TO.N,/D2*%
X146095000Y-108350000D03*
D16*
%TO.P,J5,2,Pin_2*%
%TO.N,/5v*%
X143555000Y-108350000D03*
%TO.P,J5,3,Pin_3*%
%TO.N,GND*%
X141015000Y-108350000D03*
%TD*%
D14*
%TO.P,R3,1*%
%TO.N,Net-(D1-Pad3)*%
X146910000Y-75180000D03*
D11*
%TO.P,R3,2*%
%TO.N,/PWM9*%
X146910000Y-82800000D03*
%TD*%
D17*
%TO.P,BZ1,1,-*%
%TO.N,/pwm11*%
X133640000Y-79750000D03*
D18*
%TO.P,BZ1,2,+*%
%TO.N,GND*%
X126040000Y-79750000D03*
%TD*%
D10*
%TO.P,U1,1,EN1\u002C2*%
%TO.N,/D4*%
X131240000Y-109745000D03*
D11*
%TO.P,U1,2,1A*%
%TO.N,/PWM5*%
X131240000Y-107205000D03*
%TO.P,U1,3,1Y*%
%TO.N,Net-(J3-Pad2)*%
X131240000Y-104665000D03*
%TO.P,U1,4,GND*%
%TO.N,GND*%
X131240000Y-102125000D03*
%TO.P,U1,5,GND*%
X131240000Y-99585000D03*
%TO.P,U1,6,2Y*%
%TO.N,unconnected-(U1-Pad6)*%
X131240000Y-97045000D03*
%TO.P,U1,7,2A*%
%TO.N,unconnected-(U1-Pad7)*%
X131240000Y-94505000D03*
%TO.P,U1,8,VCC2*%
%TO.N,/5v*%
X131240000Y-91965000D03*
%TO.P,U1,9,EN3\u002C4*%
%TO.N,unconnected-(U1-Pad9)*%
X123620000Y-91965000D03*
%TO.P,U1,10,3A*%
%TO.N,unconnected-(U1-Pad10)*%
X123620000Y-94505000D03*
%TO.P,U1,11,3Y*%
%TO.N,unconnected-(U1-Pad11)*%
X123620000Y-97045000D03*
%TO.P,U1,12,GND*%
%TO.N,GND*%
X123620000Y-99585000D03*
%TO.P,U1,13,GND*%
X123620000Y-102125000D03*
%TO.P,U1,14,4Y*%
%TO.N,unconnected-(U1-Pad14)*%
X123620000Y-104665000D03*
%TO.P,U1,15,4A*%
%TO.N,unconnected-(U1-Pad15)*%
X123620000Y-107205000D03*
%TO.P,U1,16,VCC1*%
%TO.N,/5v*%
X123620000Y-109745000D03*
%TD*%
D15*
%TO.P,J6,1,Pin_1*%
%TO.N,/D7*%
X151885000Y-92830000D03*
D16*
%TO.P,J6,2,Pin_2*%
%TO.N,GND*%
X149345000Y-92830000D03*
%TD*%
D15*
%TO.P,J3,1,Pin_1*%
%TO.N,GND*%
X116450000Y-106010000D03*
D16*
%TO.P,J3,2,Pin_2*%
%TO.N,Net-(J3-Pad2)*%
X118990000Y-106010000D03*
%TD*%
D14*
%TO.P,R4,1*%
%TO.N,Net-(D1-Pad1)*%
X140890000Y-75080000D03*
D11*
%TO.P,R4,2*%
%TO.N,/PWM6*%
X140890000Y-82700000D03*
%TD*%
D12*
%TO.P,D2,1,BA*%
%TO.N,Net-(D1-Pad1)*%
X150820000Y-70417000D03*
D13*
%TO.P,D2,2,K*%
%TO.N,GND*%
X150820000Y-68258000D03*
%TO.P,D2,3,GA*%
%TO.N,Net-(D1-Pad3)*%
X150820000Y-66099000D03*
%TO.P,D2,4,RA*%
%TO.N,Net-(D1-Pad4)*%
X150820000Y-63940000D03*
%TD*%
D19*
%TO.N,Net-(D1-Pad4)*%
X152630000Y-65750000D02*
X150820000Y-63940000D01*
X152630000Y-75390000D02*
X152630000Y-65750000D01*
%TO.N,/5v*%
X126415000Y-87140000D02*
X131240000Y-91965000D01*
X109330000Y-87140000D02*
X126415000Y-87140000D01*
X130115000Y-103250000D02*
X130115000Y-93090000D01*
X123620000Y-109745000D02*
X130115000Y-103250000D01*
X130115000Y-93090000D02*
X131240000Y-91965000D01*
X124925000Y-111050000D02*
X123620000Y-109745000D01*
X140855000Y-111050000D02*
X124925000Y-111050000D01*
X143555000Y-108350000D02*
X140855000Y-111050000D01*
%TO.N,/PWM5*%
X157590000Y-99840000D02*
X138605000Y-99840000D01*
X138605000Y-99840000D02*
X131240000Y-107205000D01*
%TO.N,/D4*%
X137655991Y-102380000D02*
X131240000Y-108795991D01*
X131240000Y-108795991D02*
X131240000Y-109745000D01*
X157590000Y-102380000D02*
X137655991Y-102380000D01*
%TO.N,/D2*%
X146985000Y-107460000D02*
X146095000Y-108350000D01*
X157590000Y-107460000D02*
X146985000Y-107460000D01*
%TO.N,/D7*%
X157590000Y-94760000D02*
X153815000Y-94760000D01*
X153815000Y-94760000D02*
X151885000Y-92830000D01*
%TO.N,/PWM6*%
X152153299Y-97300000D02*
X157590000Y-97300000D01*
X140890000Y-86036701D02*
X152153299Y-97300000D01*
X140890000Y-82700000D02*
X140890000Y-86036701D01*
%TO.N,/PWM9*%
X152270000Y-88160000D02*
X157590000Y-88160000D01*
X146910000Y-82800000D02*
X152270000Y-88160000D01*
%TO.N,/pwm10*%
X152630000Y-83010000D02*
X154980000Y-83010000D01*
X154980000Y-83010000D02*
X157590000Y-85620000D01*
%TO.N,Net-(D1-Pad3)*%
X150695000Y-66224000D02*
X150820000Y-66099000D01*
X116038000Y-66224000D02*
X150695000Y-66224000D01*
%TO.N,Net-(D1-Pad4)*%
X116163000Y-63940000D02*
X116038000Y-64065000D01*
X150820000Y-63940000D02*
X116163000Y-63940000D01*
%TO.N,Net-(D1-Pad1)*%
X145553000Y-70417000D02*
X150820000Y-70417000D01*
X140890000Y-75080000D02*
X145553000Y-70417000D01*
X150695000Y-70542000D02*
X150820000Y-70417000D01*
X116038000Y-70542000D02*
X150695000Y-70542000D01*
%TD*%
M02*
