M48
; DRILL file {KiCad (6.0.9)} date Fri Jul  7 16:24:08 2023
; FORMAT={-:-/ absolute / inch / decimal}
; #@! TF.CreationDate,2023-07-07T16:24:08-04:00
; #@! TF.GenerationSoftware,Kicad,Pcbnew,(6.0.9)
; #@! TF.FileFunction,Plated,1,2,PTH
FMAT,2
INCH
; #@! TA.AperFunction,Plated,PTH,ComponentDrill
T1C0.0315
; #@! TA.AperFunction,Plated,PTH,ComponentDrill
T2C0.0354
; #@! TA.AperFunction,Plated,PTH,ComponentDrill
T3C0.0394
%
G90
G05
T1
X4.8669Y-3.6207
X4.8669Y-3.7207
X4.8669Y-3.8207
X4.8669Y-3.9207
X4.8669Y-4.0207
X4.8669Y-4.1207
X4.8669Y-4.2207
X4.8669Y-4.3207
X5.1669Y-3.6207
X5.1669Y-3.7207
X5.1669Y-3.8207
X5.1669Y-3.9207
X5.1669Y-4.0207
X5.1669Y-4.1207
X5.1669Y-4.2207
X5.1669Y-4.3207
X5.5469Y-2.9559
X5.5469Y-3.2559
X5.7839Y-2.9598
X5.7839Y-3.2598
X6.0091Y-2.9681
X6.0091Y-3.2681
T2
X4.5684Y-2.5222
X4.5684Y-2.6072
X4.5684Y-2.6922
X4.5684Y-2.7772
X5.9378Y-2.5173
X5.9378Y-2.6023
X5.9378Y-2.6873
X5.9378Y-2.7723
T3
X4.3043Y-3.0307
X4.3043Y-3.1307
X4.3043Y-3.2307
X4.3043Y-3.3307
X4.3043Y-3.4307
X4.3043Y-3.5307
X4.3043Y-3.6307
X4.3043Y-3.7307
X4.3043Y-3.9307
X4.3043Y-4.0307
X4.3043Y-4.1307
X4.3043Y-4.2307
X4.3043Y-4.3307
X4.3043Y-4.4307
X4.5846Y-4.1736
X4.6846Y-4.1736
X4.9622Y-3.1398
X5.2614Y-3.1398
X5.5518Y-4.2657
X5.6518Y-4.2657
X5.7518Y-4.2657
X5.8797Y-3.6547
X5.9797Y-3.6547
X6.2043Y-2.6709
X6.2043Y-2.7709
X6.2043Y-2.8709
X6.2043Y-2.9709
X6.2043Y-3.0709
X6.2043Y-3.1709
X6.2043Y-3.2709
X6.2043Y-3.3709
X6.2043Y-3.4709
X6.2043Y-3.5709
X6.2043Y-3.7307
X6.2043Y-3.8307
X6.2043Y-3.9307
X6.2043Y-4.0307
X6.2043Y-4.1307
X6.2043Y-4.2307
X6.2043Y-4.3307
X6.2043Y-4.4307
T0
M30
